<?xml version="1.0" encoding="utf-8"?>
<!-- Generator: Adobe Illustrator 27.5.0, SVG Export Plug-In . SVG Version: 6.00 Build 0)  -->
<svg version="1.1" id="Layer_1" xmlns="http://www.w3.org/2000/svg" xmlns:xlink="http://www.w3.org/1999/xlink" x="0px" y="0px"
	 viewBox="0 0 200.511 118.703" style="enable-background:new 0 0 200.511 118.703;" xml:space="preserve">
<g>
	<g>
		<path style="fill:#FFFFFF;" d="M175.881,46.555c0,0,0,0-0.001,0c-6.252-1.21-13.143-1.622-19.162-1.114
			c-7.624,0.648-14.543,2.697-20.29,5.981c-0.028-0.039-0.057-0.077-0.085-0.116l-0.163-0.226c-0.991-1.373-1.979-2.733-3.092-4.196
			c-0.135-0.553-0.281-1.111-0.439-1.685c-1.792-6.499-7.047-13.722-14.419-19.818c-7.769-6.424-16.741-10.671-25.264-11.958
			c-2.408-0.365-4.766-0.549-7.005-0.549c-6.877,0-11.781,1.688-15.039,3.436c-0.233-0.383-0.514-0.743-0.859-1.056
			c-8.152-7.395-15.422-6.119-19.026-4.702c-0.75,0.294-3.739,1.577-5.346,3.825c-0.614-1.399-1.452-2.588-2.539-3.531
			c-2.333-2.026-4.906-2.211-6.151-2.169c-3.57-0.133-5.929,1.303-7.289,2.571c-3.499,3.264-3.677,8.196-3.677,9.151
			c0,0.962,0.302,1.859,0.805,2.616c-1.112,1.688-1.765,3.672-1.765,5.803c0,2.164,0.687,4.24,1.894,5.993
			c-0.205,0.093-0.425,0.19-0.662,0.294c-1.273,0.56-2.715,1.196-4.205,2.164c-4.028,2.604-3.552,6.076-3.311,7.074
			c0.597,2.488,2.59,4.294,6.061,5.471c0.676,2.575,1.854,5.385,3.41,8.149c-1.79,0.454-3.723,0.503-5.742,0.158
			c-0.853-0.147-1.686-0.221-2.476-0.221c-5.408,0-9.333,3.739-9.333,8.89c0,6.902,6.997,14.593,17.037,14.593
			c1.301,0,2.638-0.128,3.976-0.38c6.733-1.274,10.181-4.573,11.93-7.359c3.042,1.686,6.251,2.859,9.51,3.464
			c3.858,2.067,12.841,5.913,26.249,5.915c9.175,0,18.948-1.766,29.047-5.248c0.045-0.015,0.092-0.032,0.135-0.049
			c0.071-0.027,5.371-2.013,11.407-3.132c-1.165,7.596,1.069,15.656,6.489,23.365c4.7,6.684,11.649,12.7,19.072,16.506
			c1.672,0.854,3.185,1.27,4.625,1.27c1.889,0,3.631-0.731,4.897-2.048c2.644-2.739,2.495-6.859,2.306-12.09
			c-0.093-2.585-0.199-5.514,0.048-8.274c0.426-4.768-0.212-8.676-1.166-11.689c9.079-2.882,19.869-10.671,23.511-13.423
			c2.809-2.123,6.107-3.667,8.525-4.8c3.605-1.685,7.691-3.593,7.136-8.038C194.81,50.223,189.268,49.15,175.881,46.555z"/>
		<path style="fill:#F5F5F5;" d="M108.241,77.37c0.071-0.027,5.371-2.013,11.407-3.132c-1.165,7.596,1.069,15.656,6.489,23.365
			c4.7,6.684,11.65,12.7,19.072,16.506c1.672,0.854,3.185,1.27,4.625,1.27c1.889,0,3.631-0.731,4.897-2.048
			c2.644-2.739,2.495-6.859,2.306-12.09c-0.093-2.585-0.199-5.513,0.048-8.273c0.426-4.768-0.213-8.676-1.166-11.689
			c9.079-2.882,19.869-10.671,23.511-13.423c2.809-2.123,6.107-3.667,8.525-4.8c3.605-1.685,7.691-3.593,7.136-8.038
			c-0.637-5.15-6.179-6.223-19.566-8.818c0,0,0,0-0.001,0c-6.252-1.21-13.143-1.622-19.162-1.114
			c-7.624,0.649-14.543,2.697-20.289,5.981c-0.028-0.039-0.057-0.077-0.084-0.116l-0.163-0.226
			c-0.991-1.373-1.979-2.733-3.092-4.196c-0.135-0.553-0.281-1.111-0.439-1.685c-1.792-6.499-7.047-13.722-14.419-19.818
			c-7.769-6.424-16.741-10.671-25.264-11.959c-2.408-0.365-4.766-0.549-7.005-0.549c-6.877,0-11.781,1.689-15.039,3.436
			c-0.233-0.383-0.514-0.743-0.859-1.056c-8.152-7.395-15.422-6.119-19.026-4.702c-0.75,0.294-3.739,1.577-5.346,3.825
			c-0.614-1.399-1.452-2.588-2.539-3.531c-2.333-2.026-4.906-2.211-6.151-2.169c-3.57-0.133-5.929,1.303-7.289,2.571
			c-3.499,3.264-3.677,8.196-3.677,9.151c0,0.962,0.302,1.859,0.805,2.616c-1.112,1.688-1.765,3.672-1.765,5.803
			c0,2.164,0.687,4.24,1.894,5.993c-0.205,0.093-0.425,0.19-0.662,0.294c-1.273,0.56-2.715,1.196-4.205,2.165
			c-4.028,2.604-3.552,6.076-3.311,7.074c0.597,2.488,2.59,4.294,6.061,5.471c0.676,2.576,1.854,5.386,3.41,8.149
			c-1.791,0.454-3.723,0.503-5.742,0.158c-0.853-0.146-1.686-0.221-2.476-0.221c-5.408,0-9.333,3.739-9.333,8.89
			c0,6.903,6.997,14.593,17.037,14.593c1.301,0,2.638-0.128,3.976-0.38c6.733-1.274,10.181-4.573,11.93-7.359
			c3.042,1.686,6.251,2.859,9.51,3.464c3.858,2.067,12.841,5.913,26.249,5.915c9.175,0,18.93-1.818,29.046-5.248
			C108.15,77.404,108.197,77.387,108.241,77.37z"/>
		<path style="fill:#EBEBEB;" d="M107.885,77.014c0.071-0.027,5.371-2.013,11.407-3.132c-1.165,7.596,1.069,15.656,6.489,23.365
			c4.7,6.684,11.65,12.7,19.072,16.506c1.672,0.854,3.185,1.27,4.625,1.27c1.889,0,3.631-0.731,4.897-2.048
			c2.644-2.739,2.495-6.859,2.306-12.09c-0.093-2.585-0.199-5.514,0.048-8.274c0.426-4.768-0.212-8.676-1.166-11.689
			c9.079-2.882,19.869-10.671,23.511-13.423c2.809-2.123,6.107-3.667,8.525-4.8c3.605-1.685,7.691-3.593,7.136-8.038
			c-0.637-5.15-6.179-6.223-19.566-8.818c0,0,0,0-0.001,0c-6.252-1.21-13.143-1.622-19.162-1.114
			c-7.624,0.648-14.543,2.697-20.289,5.981c-0.028-0.039-0.057-0.077-0.085-0.116l-0.163-0.226
			c-0.991-1.373-1.979-2.733-3.092-4.196c-0.135-0.553-0.281-1.111-0.439-1.685c-1.792-6.499-7.047-13.722-14.419-19.818
			c-7.769-6.424-16.741-10.671-25.264-11.958c-2.408-0.365-4.766-0.549-7.005-0.549c-6.877,0-11.781,1.688-15.039,3.436
			c-0.233-0.383-0.514-0.743-0.859-1.056C61.199,7.145,53.93,8.421,50.325,9.839c-0.75,0.294-3.739,1.577-5.346,3.825
			c-0.614-1.399-1.452-2.588-2.539-3.531c-2.333-2.026-4.906-2.211-6.151-2.169C32.72,7.831,30.36,9.266,29,10.534
			c-3.5,3.264-3.677,8.196-3.677,9.151c0,0.962,0.302,1.859,0.805,2.616c-1.112,1.688-1.765,3.672-1.765,5.803
			c0,2.164,0.687,4.24,1.894,5.993c-0.205,0.093-0.425,0.19-0.662,0.294c-1.273,0.56-2.715,1.196-4.205,2.164
			c-4.028,2.604-3.552,6.076-3.311,7.074c0.597,2.488,2.59,4.294,6.061,5.471c0.676,2.575,1.854,5.385,3.41,8.149
			c-1.79,0.454-3.723,0.503-5.742,0.158c-0.853-0.147-1.686-0.221-2.476-0.221c-5.408,0-9.333,3.739-9.333,8.89
			c0,6.902,6.997,14.593,17.037,14.593c1.301,0,2.638-0.128,3.976-0.38c6.734-1.274,10.181-4.573,11.93-7.359
			c3.042,1.686,6.251,2.859,9.51,3.464c3.858,2.067,12.841,5.913,26.249,5.915c9.175,0,18.93-1.818,29.047-5.248
			C107.794,77.048,107.841,77.031,107.885,77.014z"/>
		<path style="fill:#E1E1E1;" d="M107.528,76.658c0.071-0.027,5.371-2.013,11.407-3.132c-1.165,7.596,1.069,15.655,6.489,23.365
			c4.7,6.684,11.65,12.7,19.072,16.506c1.672,0.854,3.185,1.27,4.625,1.27c1.889,0,3.631-0.731,4.897-2.048
			c2.644-2.739,2.495-6.859,2.306-12.09c-0.093-2.585-0.199-5.513,0.048-8.273c0.426-4.768-0.212-8.676-1.166-11.689
			c9.079-2.882,19.869-10.671,23.511-13.423c2.809-2.123,6.107-3.667,8.525-4.8c3.605-1.685,7.691-3.593,7.136-8.038
			c-0.637-5.15-6.179-6.223-19.566-8.818c0,0,0,0-0.001,0c-6.252-1.21-13.143-1.622-19.162-1.114
			c-7.624,0.648-14.543,2.697-20.29,5.981c-0.028-0.039-0.057-0.077-0.084-0.116l-0.163-0.226c-0.991-1.373-1.979-2.733-3.092-4.196
			c-0.135-0.553-0.281-1.111-0.439-1.685c-1.792-6.499-7.047-13.722-14.419-19.818c-7.769-6.424-16.741-10.671-25.264-11.958
			c-2.408-0.365-4.766-0.549-7.005-0.549c-6.877,0-11.781,1.688-15.039,3.436c-0.233-0.383-0.514-0.743-0.859-1.056
			c-8.152-7.395-15.422-6.119-19.026-4.702c-0.75,0.294-3.739,1.577-5.346,3.825c-0.614-1.399-1.452-2.588-2.539-3.531
			c-2.333-2.026-4.906-2.211-6.151-2.169c-3.57-0.133-5.929,1.302-7.289,2.571c-3.499,3.264-3.677,8.195-3.677,9.151
			c0,0.962,0.302,1.859,0.805,2.616c-1.112,1.688-1.765,3.672-1.765,5.803c0,2.164,0.687,4.24,1.894,5.993
			c-0.205,0.093-0.425,0.19-0.662,0.294c-1.273,0.56-2.715,1.196-4.205,2.164c-4.028,2.604-3.552,6.076-3.311,7.074
			c0.597,2.488,2.59,4.294,6.061,5.471c0.676,2.576,1.854,5.386,3.41,8.149c-1.791,0.454-3.723,0.503-5.742,0.158
			c-0.853-0.146-1.686-0.221-2.476-0.221c-5.408,0-9.333,3.739-9.333,8.89c0,6.903,6.997,14.593,17.037,14.593
			c1.301,0,2.638-0.128,3.976-0.38c6.733-1.274,10.181-4.573,11.93-7.359c3.042,1.686,6.251,2.859,9.51,3.464
			c3.858,2.067,12.841,5.913,26.249,5.915c9.175,0,18.93-1.818,29.046-5.248C107.437,76.692,107.485,76.674,107.528,76.658z"/>
		<path style="fill:#D7D7D7;" d="M107.172,76.301c0.071-0.027,5.371-2.013,11.407-3.132c-1.165,7.596,1.069,15.656,6.489,23.365
			c4.7,6.684,11.649,12.7,19.072,16.506c1.672,0.854,3.185,1.27,4.625,1.27c1.889,0,3.631-0.731,4.897-2.048
			c2.644-2.739,2.495-6.859,2.306-12.09c-0.093-2.585-0.198-5.514,0.048-8.274c0.426-4.768-0.212-8.676-1.166-11.689
			c9.079-2.882,19.869-10.671,23.511-13.423c2.809-2.123,6.107-3.667,8.525-4.8c3.605-1.685,7.691-3.593,7.136-8.038
			c-0.637-5.15-6.179-6.223-19.566-8.818c0,0,0,0-0.001,0c-6.252-1.21-13.143-1.622-19.162-1.114
			c-7.624,0.648-14.543,2.697-20.29,5.981c-0.028-0.039-0.057-0.077-0.085-0.116l-0.163-0.226c-0.991-1.373-1.979-2.733-3.092-4.196
			c-0.135-0.553-0.281-1.111-0.439-1.685c-1.792-6.499-7.047-13.722-14.419-19.818c-7.769-6.424-16.741-10.671-25.264-11.958
			c-2.408-0.365-4.766-0.549-7.005-0.549c-6.877,0-11.781,1.688-15.039,3.436c-0.233-0.383-0.514-0.743-0.859-1.056
			c-8.152-7.395-15.422-6.119-19.026-4.702c-0.75,0.294-3.739,1.577-5.346,3.825c-0.614-1.399-1.452-2.588-2.539-3.531
			c-2.333-2.026-4.906-2.211-6.151-2.169c-3.57-0.133-5.929,1.303-7.289,2.571c-3.5,3.264-3.677,8.196-3.677,9.151
			c0,0.962,0.302,1.859,0.805,2.616c-1.112,1.688-1.766,3.672-1.766,5.803c0,2.164,0.687,4.24,1.894,5.993
			c-0.205,0.093-0.425,0.19-0.662,0.294c-1.273,0.56-2.715,1.196-4.205,2.164c-4.028,2.604-3.552,6.076-3.311,7.074
			c0.597,2.488,2.59,4.294,6.061,5.471c0.676,2.575,1.854,5.386,3.41,8.149c-1.79,0.454-3.723,0.503-5.742,0.158
			c-0.853-0.147-1.686-0.221-2.476-0.221c-5.408,0-9.333,3.739-9.333,8.891c0,6.902,6.997,14.593,17.037,14.593
			c1.301,0,2.638-0.128,3.976-0.38c6.733-1.274,10.181-4.573,11.93-7.359c3.042,1.686,6.251,2.859,9.51,3.464
			c3.858,2.067,12.841,5.913,26.249,5.915c9.175,0,18.93-1.818,29.047-5.248C107.081,76.336,107.129,76.318,107.172,76.301z"/>
		<path style="fill:#CDCDCD;" d="M106.816,75.945c0.071-0.027,5.371-2.013,11.407-3.132c-1.165,7.596,1.069,15.655,6.489,23.365
			c4.7,6.684,11.65,12.7,19.072,16.506c1.672,0.854,3.185,1.27,4.625,1.27c1.889,0,3.631-0.731,4.897-2.048
			c2.644-2.739,2.495-6.859,2.306-12.09c-0.093-2.585-0.199-5.514,0.048-8.274c0.426-4.768-0.213-8.676-1.166-11.689
			c9.079-2.882,19.869-10.671,23.511-13.423c2.809-2.123,6.107-3.667,8.525-4.8c3.605-1.685,7.691-3.593,7.136-8.038
			c-0.637-5.15-6.179-6.223-19.566-8.818c0,0,0,0-0.001,0c-6.252-1.21-13.143-1.622-19.162-1.114
			c-7.624,0.648-14.543,2.697-20.289,5.981c-0.028-0.039-0.057-0.077-0.084-0.116l-0.163-0.226
			c-0.991-1.373-1.979-2.733-3.092-4.196c-0.135-0.553-0.281-1.111-0.439-1.685c-1.792-6.499-7.047-13.722-14.419-19.818
			c-7.769-6.424-16.741-10.671-25.264-11.958c-2.408-0.365-4.766-0.549-7.005-0.549c-6.877,0-11.781,1.689-15.039,3.436
			c-0.233-0.383-0.514-0.743-0.859-1.056C60.13,6.077,52.861,7.352,49.257,8.77c-0.75,0.294-3.739,1.577-5.346,3.825
			c-0.614-1.399-1.452-2.588-2.539-3.531c-2.333-2.026-4.906-2.211-6.151-2.169c-3.57-0.133-5.929,1.303-7.289,2.571
			c-3.499,3.264-3.677,8.195-3.677,9.151c0,0.962,0.302,1.859,0.805,2.616c-1.112,1.688-1.765,3.672-1.765,5.803
			c0,2.164,0.687,4.24,1.894,5.993c-0.205,0.093-0.425,0.19-0.662,0.294c-1.273,0.56-2.715,1.196-4.205,2.165
			c-4.028,2.604-3.552,6.076-3.311,7.074c0.597,2.488,2.59,4.294,6.061,5.471c0.676,2.576,1.854,5.386,3.41,8.149
			c-1.791,0.454-3.723,0.503-5.742,0.158c-0.853-0.146-1.686-0.221-2.476-0.221c-5.408,0-9.333,3.739-9.333,8.89
			c0,6.902,6.997,14.593,17.037,14.593c1.301,0,2.638-0.128,3.976-0.38c6.733-1.274,10.181-4.573,11.93-7.359
			c3.042,1.686,6.251,2.859,9.51,3.464c3.858,2.067,12.841,5.913,26.249,5.915c9.175,0,18.93-1.818,29.046-5.248
			C106.725,75.979,106.772,75.962,106.816,75.945z"/>
		<path style="fill:#C3C3C3;" d="M106.46,75.589c0.071-0.027,5.371-2.013,11.407-3.132c-1.165,7.596,1.069,15.656,6.489,23.365
			c4.7,6.684,11.65,12.7,19.072,16.506c1.672,0.854,3.185,1.27,4.625,1.27c1.889,0,3.631-0.731,4.897-2.048
			c2.644-2.739,2.495-6.859,2.306-12.09c-0.093-2.585-0.199-5.514,0.048-8.274c0.426-4.768-0.212-8.676-1.166-11.689
			c9.079-2.882,19.869-10.671,23.511-13.423c2.809-2.123,6.107-3.667,8.525-4.8c3.605-1.685,7.691-3.593,7.136-8.038
			c-0.637-5.15-6.179-6.223-19.566-8.818c0,0,0,0-0.001,0c-6.252-1.21-13.143-1.622-19.162-1.114
			c-7.624,0.648-14.543,2.697-20.29,5.981c-0.028-0.039-0.057-0.077-0.085-0.116l-0.163-0.226c-0.991-1.373-1.979-2.733-3.092-4.196
			c-0.135-0.553-0.281-1.111-0.439-1.685c-1.792-6.499-7.047-13.722-14.419-19.818c-7.769-6.424-16.741-10.671-25.264-11.958
			c-2.408-0.365-4.766-0.549-7.005-0.549c-6.877,0-11.781,1.688-15.039,3.436c-0.233-0.383-0.514-0.743-0.859-1.056
			C59.774,5.72,52.505,6.996,48.9,8.414c-0.75,0.294-3.739,1.577-5.346,3.825c-0.614-1.399-1.452-2.588-2.539-3.531
			c-2.333-2.026-4.906-2.211-6.151-2.169c-3.57-0.133-5.929,1.303-7.289,2.571c-3.5,3.264-3.677,8.196-3.677,9.151
			c0,0.962,0.302,1.859,0.805,2.616c-1.112,1.688-1.766,3.672-1.766,5.803c0,2.164,0.687,4.24,1.894,5.993
			c-0.205,0.093-0.425,0.19-0.662,0.294c-1.273,0.56-2.716,1.196-4.205,2.164c-4.028,2.604-3.552,6.076-3.311,7.074
			c0.597,2.488,2.59,4.294,6.061,5.471c0.676,2.575,1.854,5.385,3.41,8.149c-1.79,0.454-3.723,0.503-5.742,0.158
			c-0.853-0.147-1.686-0.221-2.476-0.221c-5.408,0-9.333,3.739-9.333,8.891c0,6.902,6.997,14.593,17.037,14.593
			c1.301,0,2.638-0.128,3.976-0.38c6.733-1.274,10.181-4.573,11.93-7.359c3.042,1.686,6.251,2.859,9.51,3.464
			c3.858,2.067,12.841,5.913,26.249,5.915c9.175,0,18.93-1.818,29.047-5.248C106.369,75.623,106.416,75.605,106.46,75.589z"/>
		<path style="fill:#B9B9B9;" d="M106.103,75.233c0.071-0.027,5.371-2.013,11.407-3.132c-1.165,7.596,1.069,15.656,6.489,23.365
			c4.7,6.684,11.65,12.7,19.072,16.506c1.672,0.854,3.185,1.27,4.625,1.27c1.889,0,3.631-0.731,4.897-2.048
			c2.644-2.739,2.495-6.859,2.306-12.09c-0.093-2.585-0.199-5.514,0.048-8.273c0.426-4.768-0.212-8.676-1.166-11.69
			c9.079-2.882,19.869-10.671,23.511-13.423c2.809-2.123,6.107-3.667,8.525-4.8c3.605-1.685,7.691-3.593,7.136-8.038
			c-0.637-5.15-6.179-6.223-19.566-8.818c0,0,0,0-0.001,0c-6.252-1.21-13.143-1.622-19.162-1.114
			c-7.624,0.648-14.543,2.697-20.29,5.981c-0.028-0.039-0.057-0.077-0.084-0.116l-0.163-0.226c-0.991-1.373-1.979-2.733-3.092-4.196
			c-0.135-0.553-0.281-1.111-0.439-1.685c-1.792-6.499-7.047-13.722-14.419-19.818c-7.769-6.424-16.741-10.671-25.264-11.958
			c-2.408-0.365-4.766-0.549-7.005-0.549c-6.877,0-11.781,1.689-15.039,3.436c-0.233-0.383-0.514-0.743-0.859-1.056
			C59.418,5.364,52.148,6.64,48.544,8.057c-0.75,0.294-3.739,1.577-5.346,3.825c-0.614-1.399-1.452-2.588-2.539-3.531
			c-2.333-2.026-4.906-2.211-6.151-2.169c-3.57-0.133-5.929,1.302-7.289,2.571c-3.499,3.264-3.677,8.196-3.677,9.151
			c0,0.962,0.302,1.859,0.805,2.616c-1.112,1.688-1.765,3.672-1.765,5.803c0,2.164,0.687,4.24,1.894,5.993
			c-0.205,0.093-0.425,0.19-0.662,0.294c-1.273,0.56-2.715,1.196-4.205,2.165c-4.028,2.604-3.552,6.076-3.311,7.074
			c0.597,2.488,2.59,4.294,6.061,5.471c0.676,2.576,1.854,5.386,3.41,8.149c-1.79,0.454-3.723,0.503-5.742,0.158
			c-0.853-0.146-1.686-0.221-2.476-0.221c-5.408,0-9.333,3.739-9.333,8.89c0,6.902,6.997,14.593,17.037,14.593
			c1.301,0,2.638-0.128,3.976-0.38c6.734-1.274,10.181-4.573,11.93-7.359c3.042,1.686,6.251,2.859,9.51,3.464
			c3.858,2.067,12.841,5.913,26.249,5.915c9.175,0,18.93-1.818,29.046-5.248C106.012,75.267,106.06,75.249,106.103,75.233z"/>
		<path style="fill:#B0B0B0;" d="M105.747,74.877c0.071-0.027,5.371-2.013,11.407-3.132c-1.165,7.596,1.069,15.656,6.489,23.365
			c4.7,6.684,11.649,12.7,19.072,16.506c1.672,0.854,3.185,1.27,4.625,1.27c1.889,0,3.631-0.731,4.897-2.048
			c2.644-2.739,2.495-6.859,2.306-12.09c-0.093-2.585-0.199-5.514,0.048-8.274c0.426-4.768-0.212-8.676-1.166-11.69
			c9.079-2.882,19.869-10.671,23.511-13.423c2.809-2.123,6.107-3.667,8.525-4.8c3.605-1.685,7.691-3.593,7.136-8.038
			c-0.637-5.15-6.179-6.223-19.566-8.818c0,0,0,0-0.001,0c-6.252-1.21-13.143-1.622-19.162-1.114
			c-7.624,0.648-14.543,2.697-20.29,5.981c-0.028-0.039-0.057-0.077-0.084-0.116l-0.163-0.226c-0.991-1.373-1.979-2.733-3.092-4.196
			c-0.135-0.553-0.281-1.111-0.439-1.685c-1.792-6.499-7.047-13.722-14.419-19.818c-7.769-6.424-16.741-10.671-25.264-11.959
			c-2.408-0.365-4.766-0.549-7.005-0.549c-6.877,0-11.781,1.688-15.039,3.436c-0.233-0.383-0.514-0.743-0.859-1.056
			c-8.152-7.395-15.422-6.119-19.026-4.702c-0.75,0.294-3.739,1.577-5.346,3.825c-0.614-1.399-1.452-2.588-2.539-3.531
			c-2.333-2.026-4.906-2.211-6.151-2.169c-3.57-0.133-5.929,1.303-7.289,2.571c-3.5,3.264-3.677,8.196-3.677,9.151
			c0,0.962,0.302,1.859,0.805,2.616c-1.112,1.688-1.766,3.672-1.766,5.803c0,2.164,0.687,4.24,1.894,5.993
			c-0.205,0.093-0.425,0.19-0.662,0.294c-1.273,0.56-2.715,1.196-4.205,2.164c-4.028,2.604-3.552,6.076-3.311,7.074
			c0.597,2.488,2.59,4.294,6.061,5.471c0.676,2.575,1.854,5.386,3.41,8.149c-1.79,0.454-3.723,0.503-5.742,0.158
			c-0.853-0.147-1.686-0.221-2.476-0.221c-5.408,0-9.333,3.739-9.333,8.89c0,6.902,6.997,14.593,17.037,14.593
			c1.301,0,2.638-0.128,3.976-0.38c6.734-1.274,10.181-4.573,11.93-7.359c3.042,1.686,6.251,2.859,9.51,3.464
			c3.858,2.067,12.841,5.913,26.249,5.915c9.175,0,18.93-1.818,29.047-5.248C105.656,74.911,105.703,74.893,105.747,74.877z"/>
		<path style="fill:#A6A6A6;" d="M105.391,74.52c0.071-0.027,5.371-2.013,11.407-3.132c-1.165,7.596,1.069,15.656,6.489,23.365
			c4.7,6.684,11.65,12.7,19.072,16.506c1.672,0.854,3.185,1.27,4.625,1.27c1.889,0,3.631-0.731,4.897-2.048
			c2.644-2.739,2.495-6.859,2.306-12.09c-0.093-2.585-0.199-5.514,0.048-8.273c0.426-4.768-0.212-8.676-1.166-11.689
			c9.079-2.882,19.869-10.671,23.511-13.423c2.809-2.123,6.107-3.667,8.525-4.8c3.605-1.685,7.691-3.593,7.136-8.038
			c-0.637-5.15-6.179-6.223-19.566-8.818c0,0,0,0-0.001,0c-6.252-1.21-13.143-1.622-19.162-1.114
			c-7.624,0.648-14.543,2.697-20.29,5.981c-0.028-0.039-0.057-0.077-0.084-0.116l-0.163-0.226c-0.991-1.373-1.979-2.733-3.092-4.196
			c-0.135-0.553-0.281-1.111-0.439-1.685c-1.792-6.499-7.047-13.722-14.419-19.818c-7.769-6.424-16.741-10.671-25.264-11.958
			c-2.408-0.365-4.766-0.549-7.005-0.549c-6.877,0-11.781,1.688-15.039,3.436c-0.233-0.383-0.514-0.743-0.859-1.056
			c-8.152-7.395-15.422-6.119-19.026-4.702c-0.75,0.294-3.739,1.577-5.346,3.825c-0.614-1.399-1.452-2.588-2.539-3.531
			c-2.333-2.026-4.906-2.211-6.151-2.169c-3.57-0.133-5.929,1.302-7.289,2.571c-3.499,3.264-3.677,8.196-3.677,9.151
			c0,0.962,0.302,1.859,0.805,2.616c-1.112,1.688-1.765,3.672-1.765,5.803c0,2.164,0.687,4.24,1.894,5.993
			c-0.205,0.093-0.425,0.19-0.662,0.294c-1.273,0.56-2.716,1.196-4.205,2.164c-4.028,2.604-3.552,6.076-3.311,7.074
			c0.597,2.488,2.59,4.294,6.061,5.471c0.676,2.576,1.854,5.386,3.41,8.149c-1.791,0.454-3.723,0.503-5.742,0.158
			c-0.853-0.146-1.686-0.221-2.476-0.221c-5.408,0-9.333,3.739-9.333,8.89c0,6.903,6.997,14.593,17.037,14.593
			c1.301,0,2.638-0.128,3.976-0.38c6.733-1.274,10.181-4.573,11.93-7.359c3.042,1.686,6.251,2.859,9.51,3.464
			c3.858,2.067,12.841,5.913,26.249,5.915c9.175,0,18.93-1.818,29.046-5.248C105.3,74.554,105.347,74.537,105.391,74.52z"/>
		<path style="fill:#9C9C9C;" d="M105.035,74.164c0.071-0.027,5.371-2.013,11.407-3.132c-1.165,7.596,1.069,15.656,6.489,23.365
			c4.7,6.684,11.649,12.7,19.072,16.506c1.672,0.854,3.185,1.27,4.625,1.27c1.889,0,3.631-0.731,4.897-2.048
			c2.644-2.739,2.495-6.859,2.306-12.09c-0.093-2.585-0.199-5.514,0.048-8.274c0.426-4.768-0.212-8.676-1.166-11.689
			c9.079-2.882,19.869-10.671,23.511-13.423c2.809-2.123,6.107-3.667,8.525-4.8c3.605-1.685,7.691-3.593,7.136-8.038
			c-0.637-5.15-6.179-6.223-19.566-8.818c0,0,0,0-0.001,0c-6.252-1.21-13.143-1.622-19.162-1.114
			c-7.624,0.648-14.543,2.697-20.29,5.981c-0.028-0.039-0.057-0.077-0.085-0.116l-0.163-0.226c-0.991-1.373-1.979-2.733-3.092-4.196
			c-0.135-0.553-0.281-1.111-0.439-1.685c-1.792-6.499-7.047-13.722-14.419-19.818c-7.769-6.424-16.741-10.671-25.264-11.958
			c-2.408-0.365-4.766-0.549-7.005-0.549c-6.877,0-11.781,1.688-15.039,3.436c-0.233-0.383-0.514-0.743-0.859-1.056
			c-8.152-7.395-15.422-6.119-19.026-4.702c-0.75,0.294-3.739,1.577-5.346,3.825c-0.614-1.399-1.452-2.588-2.539-3.531
			c-2.333-2.026-4.906-2.211-6.151-2.169c-3.57-0.133-5.929,1.303-7.289,2.571c-3.499,3.264-3.677,8.196-3.677,9.151
			c0,0.962,0.302,1.859,0.805,2.616c-1.112,1.688-1.765,3.672-1.765,5.803c0,2.164,0.687,4.24,1.894,5.993
			c-0.205,0.093-0.425,0.19-0.662,0.294c-1.273,0.56-2.715,1.196-4.205,2.164c-4.028,2.604-3.552,6.076-3.311,7.074
			c0.597,2.488,2.59,4.294,6.061,5.471c0.676,2.575,1.854,5.385,3.41,8.149c-1.79,0.454-3.723,0.503-5.742,0.158
			c-0.853-0.147-1.686-0.221-2.476-0.221c-5.408,0-9.333,3.739-9.333,8.89c0,6.902,6.997,14.593,17.037,14.593
			c1.301,0,2.638-0.128,3.976-0.38c6.733-1.274,10.181-4.573,11.93-7.359c3.042,1.686,6.251,2.859,9.51,3.464
			c3.858,2.067,12.841,5.913,26.249,5.915c9.175,0,18.93-1.818,29.047-5.248C104.944,74.198,104.991,74.18,105.035,74.164z"/>
		<path style="fill:#929292;" d="M104.678,73.808c0.071-0.027,5.371-2.013,11.407-3.132c-1.165,7.596,1.069,15.656,6.489,23.365
			c4.7,6.684,11.65,12.7,19.072,16.506c1.672,0.854,3.185,1.27,4.625,1.27c1.889,0,3.631-0.731,4.897-2.048
			c2.644-2.739,2.495-6.859,2.306-12.09c-0.093-2.585-0.199-5.513,0.048-8.273c0.426-4.768-0.213-8.676-1.166-11.689
			c9.079-2.882,19.869-10.671,23.511-13.423c2.809-2.123,6.107-3.667,8.525-4.8c3.605-1.685,7.691-3.593,7.136-8.038
			c-0.637-5.15-6.179-6.223-19.566-8.818c0,0,0,0-0.001,0c-6.252-1.21-13.143-1.622-19.162-1.114
			c-7.624,0.649-14.543,2.697-20.289,5.981c-0.028-0.039-0.057-0.077-0.084-0.116l-0.163-0.226
			c-0.991-1.373-1.979-2.733-3.092-4.196c-0.135-0.553-0.281-1.111-0.439-1.685c-1.792-6.499-7.047-13.722-14.419-19.818
			c-7.769-6.424-16.741-10.671-25.264-11.959c-2.408-0.365-4.766-0.549-7.005-0.549c-6.877,0-11.781,1.689-15.039,3.436
			c-0.233-0.383-0.514-0.743-0.859-1.056c-8.152-7.395-15.422-6.119-19.026-4.702c-0.75,0.294-3.739,1.577-5.346,3.825
			c-0.614-1.399-1.452-2.588-2.539-3.531c-2.333-2.026-4.906-2.211-6.151-2.169c-3.57-0.133-5.929,1.302-7.289,2.571
			c-3.499,3.264-3.677,8.195-3.677,9.151c0,0.962,0.302,1.859,0.805,2.616c-1.112,1.688-1.765,3.672-1.765,5.803
			c0,2.164,0.687,4.24,1.894,5.993c-0.205,0.093-0.425,0.19-0.662,0.294c-1.273,0.56-2.715,1.196-4.205,2.165
			c-4.028,2.604-3.552,6.076-3.311,7.074c0.597,2.488,2.59,4.294,6.061,5.471c0.676,2.576,1.854,5.386,3.41,8.149
			c-1.791,0.454-3.723,0.503-5.742,0.158c-0.853-0.146-1.686-0.221-2.476-0.221c-5.408,0-9.333,3.739-9.333,8.89
			c0,6.903,6.997,14.593,17.037,14.593c1.301,0,2.638-0.128,3.976-0.38c6.733-1.274,10.181-4.573,11.93-7.359
			c3.042,1.686,6.251,2.859,9.51,3.464c3.858,2.067,12.841,5.913,26.249,5.915c9.175,0,18.93-1.818,29.046-5.248
			C104.587,73.842,104.635,73.824,104.678,73.808z"/>
		<path style="fill:#888888;" d="M104.322,73.451c0.071-0.027,5.371-2.013,11.407-3.132c-1.165,7.596,1.069,15.656,6.489,23.365
			c4.7,6.684,11.65,12.7,19.072,16.506c1.672,0.854,3.185,1.27,4.625,1.27c1.889,0,3.631-0.731,4.897-2.048
			c2.644-2.739,2.495-6.859,2.306-12.09c-0.093-2.585-0.199-5.514,0.048-8.274c0.426-4.768-0.212-8.676-1.166-11.689
			c9.079-2.882,19.869-10.671,23.511-13.423c2.809-2.123,6.107-3.667,8.525-4.8c3.605-1.685,7.691-3.593,7.136-8.038
			c-0.637-5.15-6.179-6.223-19.566-8.818c0,0,0,0-0.001,0c-6.252-1.21-13.143-1.622-19.162-1.114
			c-7.624,0.648-14.543,2.697-20.289,5.981c-0.028-0.039-0.057-0.077-0.085-0.116l-0.163-0.226
			c-0.991-1.373-1.979-2.733-3.092-4.196c-0.135-0.553-0.281-1.111-0.439-1.685c-1.792-6.499-7.047-13.722-14.419-19.818
			c-7.769-6.424-16.741-10.671-25.264-11.958c-2.408-0.365-4.766-0.549-7.005-0.549c-6.877,0-11.781,1.688-15.039,3.436
			c-0.233-0.383-0.514-0.743-0.859-1.056c-8.152-7.395-15.422-6.119-19.026-4.702c-0.75,0.294-3.739,1.577-5.346,3.825
			c-0.614-1.399-1.452-2.588-2.539-3.531c-2.333-2.026-4.906-2.211-6.151-2.169c-3.57-0.133-5.929,1.303-7.289,2.571
			c-3.5,3.264-3.677,8.196-3.677,9.151c0,0.962,0.302,1.859,0.805,2.616c-1.112,1.688-1.765,3.672-1.765,5.803
			c0,2.164,0.687,4.24,1.894,5.993c-0.205,0.093-0.425,0.19-0.662,0.294c-1.273,0.56-2.715,1.196-4.205,2.164
			c-4.028,2.604-3.552,6.076-3.311,7.074c0.597,2.488,2.59,4.294,6.061,5.471c0.676,2.575,1.854,5.385,3.41,8.149
			c-1.79,0.454-3.723,0.503-5.742,0.158c-0.853-0.147-1.686-0.221-2.476-0.221c-5.408,0-9.333,3.739-9.333,8.89
			c0,6.902,6.997,14.593,17.037,14.593c1.301,0,2.638-0.128,3.976-0.38c6.734-1.274,10.181-4.573,11.93-7.359
			c3.042,1.686,6.251,2.859,9.51,3.464c3.858,2.067,12.841,5.913,26.249,5.915c9.175,0,18.93-1.818,29.047-5.248
			C104.231,73.486,104.279,73.468,104.322,73.451z"/>
		<path style="fill:#7E7E7E;" d="M103.966,73.095c0.071-0.027,5.371-2.013,11.407-3.132c-1.165,7.596,1.069,15.655,6.489,23.365
			c4.7,6.684,11.65,12.7,19.072,16.506c1.672,0.854,3.185,1.27,4.625,1.27c1.889,0,3.631-0.731,4.897-2.048
			c2.644-2.739,2.495-6.859,2.306-12.09c-0.093-2.585-0.199-5.513,0.048-8.273c0.426-4.768-0.212-8.676-1.166-11.689
			c9.079-2.882,19.869-10.671,23.511-13.423c2.809-2.123,6.107-3.667,8.525-4.8c3.605-1.685,7.691-3.593,7.136-8.038
			c-0.637-5.15-6.179-6.223-19.566-8.818c0,0,0,0-0.001,0c-6.252-1.21-13.143-1.622-19.162-1.114
			c-7.624,0.648-14.543,2.697-20.29,5.981c-0.028-0.039-0.057-0.077-0.084-0.116l-0.163-0.226c-0.991-1.373-1.979-2.733-3.092-4.196
			c-0.135-0.553-0.281-1.111-0.439-1.685c-1.792-6.499-7.047-13.722-14.419-19.818c-7.769-6.424-16.741-10.671-25.264-11.958
			c-2.408-0.365-4.766-0.549-7.005-0.549c-6.877,0-11.781,1.688-15.039,3.436c-0.233-0.383-0.514-0.743-0.859-1.056
			C57.28,3.227,50.011,4.502,46.407,5.92c-0.75,0.294-3.739,1.577-5.346,3.825c-0.614-1.399-1.452-2.588-2.539-3.531
			c-2.333-2.026-4.906-2.211-6.151-2.169c-3.57-0.133-5.929,1.303-7.289,2.571c-3.499,3.264-3.677,8.196-3.677,9.151
			c0,0.962,0.302,1.859,0.805,2.616c-1.112,1.688-1.765,3.672-1.765,5.803c0,2.164,0.687,4.24,1.894,5.993
			c-0.205,0.093-0.425,0.19-0.662,0.294c-1.273,0.56-2.715,1.196-4.205,2.164c-4.028,2.604-3.552,6.076-3.311,7.074
			c0.597,2.488,2.59,4.294,6.061,5.471c0.676,2.576,1.854,5.386,3.41,8.149c-1.791,0.454-3.723,0.503-5.742,0.158
			c-0.853-0.146-1.686-0.221-2.476-0.221c-5.408,0-9.333,3.739-9.333,8.89c0,6.903,6.997,14.593,17.037,14.593
			c1.301,0,2.638-0.128,3.976-0.38c6.733-1.274,10.181-4.573,11.93-7.359c3.042,1.686,6.251,2.859,9.51,3.464
			c3.858,2.067,12.841,5.913,26.249,5.915c9.175,0,18.93-1.818,29.046-5.248C103.875,73.129,103.922,73.112,103.966,73.095z"/>
		<path style="fill:#747474;" d="M103.61,72.739c0.071-0.027,5.371-2.013,11.407-3.132c-1.165,7.596,1.069,15.656,6.489,23.365
			c4.7,6.684,11.649,12.7,19.072,16.506c1.672,0.854,3.185,1.27,4.625,1.27c1.889,0,3.631-0.731,4.897-2.048
			c2.644-2.739,2.495-6.859,2.306-12.09c-0.093-2.585-0.198-5.514,0.048-8.274c0.426-4.768-0.212-8.676-1.166-11.689
			c9.079-2.882,19.869-10.671,23.511-13.423c2.809-2.123,6.107-3.667,8.525-4.8c3.605-1.685,7.691-3.593,7.136-8.038
			c-0.637-5.15-6.179-6.223-19.566-8.818c0,0,0,0-0.001,0c-6.252-1.21-13.143-1.622-19.162-1.114
			c-7.624,0.648-14.543,2.697-20.29,5.981c-0.028-0.039-0.057-0.077-0.085-0.116l-0.163-0.226c-0.991-1.373-1.979-2.733-3.092-4.196
			c-0.135-0.553-0.281-1.111-0.439-1.685c-1.792-6.499-7.047-13.722-14.419-19.818c-7.769-6.424-16.741-10.671-25.264-11.958
			c-2.408-0.365-4.766-0.549-7.005-0.549c-6.877,0-11.781,1.688-15.039,3.436c-0.233-0.383-0.514-0.743-0.859-1.056
			C56.924,2.87,49.654,4.146,46.05,5.564c-0.75,0.294-3.739,1.577-5.346,3.825c-0.614-1.399-1.452-2.588-2.539-3.531
			c-2.333-2.026-4.906-2.211-6.151-2.169c-3.57-0.133-5.929,1.303-7.289,2.571c-3.5,3.264-3.677,8.196-3.677,9.151
			c0,0.962,0.302,1.859,0.805,2.616c-1.112,1.688-1.766,3.672-1.766,5.803c0,2.164,0.687,4.24,1.894,5.993
			c-0.205,0.093-0.425,0.19-0.662,0.294c-1.273,0.56-2.715,1.196-4.205,2.164c-4.028,2.604-3.552,6.076-3.311,7.074
			c0.597,2.488,2.59,4.294,6.061,5.471c0.676,2.575,1.854,5.386,3.41,8.149c-1.79,0.454-3.723,0.503-5.742,0.158
			c-0.853-0.147-1.686-0.221-2.476-0.221c-5.408,0-9.333,3.739-9.333,8.89c0,6.902,6.997,14.593,17.037,14.593
			c1.301,0,2.638-0.128,3.976-0.38c6.733-1.274,10.181-4.573,11.93-7.359c3.042,1.686,6.251,2.859,9.51,3.464
			c3.858,2.067,12.841,5.913,26.249,5.915c9.175,0,18.93-1.818,29.047-5.248C103.519,72.773,103.566,72.756,103.61,72.739z"/>
		<path style="fill:#6A6A6A;" d="M103.253,72.383c0.071-0.027,5.371-2.013,11.407-3.132c-1.165,7.596,1.069,15.655,6.489,23.365
			c4.7,6.684,11.65,12.7,19.072,16.506c1.672,0.854,3.185,1.27,4.625,1.27c1.889,0,3.631-0.731,4.897-2.048
			c2.644-2.739,2.495-6.859,2.306-12.09c-0.093-2.585-0.199-5.514,0.048-8.274c0.426-4.768-0.213-8.676-1.166-11.689
			c9.079-2.882,19.869-10.671,23.511-13.423c2.809-2.123,6.107-3.667,8.525-4.8c3.605-1.685,7.691-3.593,7.136-8.038
			c-0.637-5.15-6.179-6.223-19.566-8.818c0,0,0,0-0.001,0c-6.252-1.21-13.143-1.622-19.162-1.114
			c-7.624,0.648-14.543,2.697-20.289,5.981c-0.028-0.039-0.057-0.077-0.084-0.116l-0.163-0.226
			c-0.991-1.373-1.979-2.733-3.092-4.196c-0.135-0.553-0.281-1.111-0.439-1.685c-1.792-6.499-7.047-13.722-14.419-19.818
			c-7.769-6.424-16.741-10.671-25.264-11.958c-2.408-0.365-4.766-0.549-7.005-0.549c-6.877,0-11.781,1.688-15.039,3.436
			c-0.233-0.383-0.514-0.743-0.859-1.056C56.568,2.514,49.298,3.79,45.694,5.207c-0.75,0.294-3.739,1.577-5.346,3.825
			c-0.614-1.399-1.452-2.588-2.539-3.531c-2.333-2.026-4.906-2.211-6.151-2.169c-3.57-0.133-5.929,1.303-7.289,2.571
			c-3.499,3.264-3.677,8.195-3.677,9.151c0,0.962,0.302,1.859,0.805,2.616c-1.112,1.688-1.765,3.672-1.765,5.803
			c0,2.164,0.687,4.24,1.894,5.993c-0.205,0.093-0.425,0.19-0.662,0.294c-1.273,0.56-2.715,1.196-4.205,2.164
			c-4.028,2.604-3.552,6.076-3.311,7.074c0.597,2.488,2.59,4.294,6.061,5.471c0.676,2.576,1.854,5.386,3.41,8.149
			c-1.791,0.454-3.723,0.503-5.742,0.158c-0.853-0.146-1.686-0.221-2.476-0.221c-5.408,0-9.333,3.739-9.333,8.89
			c0,6.903,6.997,14.593,17.037,14.593c1.301,0,2.638-0.128,3.976-0.38c6.733-1.274,10.181-4.573,11.93-7.359
			c3.042,1.686,6.251,2.859,9.51,3.464c3.858,2.067,12.841,5.913,26.249,5.915c9.175,0,18.93-1.818,29.046-5.248
			C103.162,72.417,103.21,72.399,103.253,72.383z"/>
		<path style="fill:#606060;" d="M170.181,40.855c0,0,0,0-0.001,0c-6.252-1.21-13.143-1.622-19.162-1.114
			c-7.624,0.648-14.543,2.697-20.29,5.981c-0.028-0.039-0.057-0.077-0.085-0.116l-0.163-0.226c-0.991-1.373-1.979-2.733-3.092-4.196
			c-0.135-0.553-0.281-1.111-0.439-1.685c-1.792-6.499-7.047-13.722-14.419-19.818C104.762,13.256,95.79,9.009,87.267,7.721
			c-2.408-0.365-4.766-0.549-7.005-0.549c-6.877,0-11.781,1.688-15.039,3.436c-0.233-0.383-0.514-0.743-0.859-1.056
			c-8.152-7.395-15.422-6.119-19.026-4.702c-0.75,0.294-3.739,1.577-5.346,3.825c-0.614-1.399-1.452-2.588-2.539-3.531
			c-2.333-2.026-4.906-2.211-6.151-2.169c-3.57-0.133-5.929,1.303-7.289,2.571c-3.5,3.264-3.677,8.196-3.677,9.151
			c0,0.962,0.302,1.859,0.805,2.616c-1.112,1.688-1.766,3.672-1.766,5.803c0,2.164,0.687,4.24,1.894,5.993
			c-0.205,0.093-0.425,0.19-0.662,0.294c-1.273,0.56-2.716,1.196-4.205,2.164c-4.028,2.604-3.552,6.076-3.311,7.074
			c0.598,2.488,2.59,4.294,6.061,5.471c0.676,2.575,1.854,5.385,3.41,8.149c-1.79,0.454-3.723,0.503-5.742,0.158
			c-0.853-0.147-1.686-0.221-2.476-0.221c-5.408,0-9.333,3.739-9.333,8.891c0,6.902,6.997,14.593,17.037,14.593
			c1.301,0,2.638-0.128,3.976-0.38c6.733-1.274,10.181-4.573,11.93-7.359c3.042,1.686,6.251,2.859,9.51,3.464
			c3.858,2.067,12.841,5.913,26.249,5.915c9.175,0,18.948-1.766,29.047-5.248c0.044-0.015,0.092-0.033,0.135-0.049
			c0.071-0.027,5.371-2.013,11.407-3.132c-1.165,7.596,1.069,15.656,6.489,23.365c4.7,6.684,11.65,12.7,19.072,16.506
			c1.672,0.854,3.185,1.27,4.625,1.27c1.889,0,3.631-0.731,4.897-2.048c2.644-2.739,2.495-6.859,2.306-12.09
			c-0.093-2.585-0.199-5.514,0.048-8.274c0.426-4.768-0.212-8.676-1.166-11.689c9.079-2.882,19.869-10.671,23.511-13.423
			c2.809-2.123,6.107-3.667,8.525-4.8c3.605-1.685,7.691-3.593,7.136-8.038C189.11,44.523,183.568,43.45,170.181,40.855z"/>
	</g>
	<g>
		<path style="fill:#FFFFFF;" d="M170.181,40.855c0,0,0,0-0.001,0c-6.252-1.21-13.143-1.622-19.162-1.114
			c-7.624,0.648-14.543,2.697-20.29,5.981c-0.028-0.039-0.057-0.077-0.085-0.116l-0.163-0.226c-0.991-1.373-1.979-2.733-3.092-4.196
			c-0.135-0.553-0.281-1.111-0.439-1.685c-1.792-6.499-7.047-13.722-14.419-19.818C104.762,13.256,95.79,9.009,87.267,7.721
			c-2.408-0.365-4.766-0.549-7.005-0.549c-6.877,0-11.781,1.688-15.039,3.436c-0.233-0.383-0.514-0.743-0.859-1.056
			c-8.152-7.395-15.422-6.119-19.026-4.702c-0.75,0.294-3.739,1.577-5.346,3.825c-0.614-1.399-1.452-2.588-2.539-3.531
			c-2.333-2.026-4.906-2.211-6.151-2.169c-3.57-0.133-5.929,1.303-7.289,2.571c-3.5,3.264-3.677,8.196-3.677,9.151
			c0,0.962,0.302,1.859,0.805,2.616c-1.112,1.688-1.766,3.672-1.766,5.803c0,2.164,0.687,4.24,1.894,5.993
			c-0.205,0.093-0.425,0.19-0.662,0.294c-1.273,0.56-2.716,1.196-4.205,2.164c-4.028,2.604-3.552,6.076-3.311,7.074
			c0.598,2.488,2.59,4.294,6.061,5.471c0.676,2.575,1.854,5.385,3.41,8.149c-1.79,0.454-3.723,0.503-5.742,0.158
			c-0.853-0.147-1.686-0.221-2.476-0.221c-5.408,0-9.333,3.739-9.333,8.891c0,6.902,6.997,14.593,17.037,14.593
			c1.301,0,2.638-0.128,3.976-0.38c6.733-1.274,10.181-4.573,11.93-7.359c3.042,1.686,6.251,2.859,9.51,3.464
			c3.858,2.067,12.841,5.913,26.249,5.915c9.175,0,18.948-1.766,29.047-5.248c0.044-0.015,0.092-0.033,0.135-0.049
			c0.071-0.027,5.371-2.013,11.407-3.132c-1.165,7.596,1.069,15.656,6.489,23.365c4.7,6.684,11.65,12.7,19.072,16.506
			c1.672,0.854,3.185,1.27,4.625,1.27c1.889,0,3.631-0.731,4.897-2.048c2.644-2.739,2.495-6.859,2.306-12.09
			c-0.093-2.585-0.199-5.514,0.048-8.274c0.426-4.768-0.212-8.676-1.166-11.689c9.079-2.882,19.869-10.671,23.511-13.423
			c2.809-2.123,6.107-3.667,8.525-4.8c3.605-1.685,7.691-3.593,7.136-8.038C189.11,44.523,183.568,43.45,170.181,40.855z"/>
		<g>
			<g>
				<path style="fill:#FFD833;" d="M121.178,47.733c0,0,3.953,4.138,0.913-6.895c-3.042-11.033-19.158-25.65-35.578-28.134
					c-16.42-2.482-22.807,5.24-22.807,5.24L121.178,47.733z"/>
				<path style="fill:#232426;" d="M122.495,48.782L122.495,48.782c-0.636,0-1.317-0.639-1.491-0.814L63.255,18.036l0.229-0.276
					c0.197-0.239,4.961-5.838,16.777-5.838c2.005,0,4.124,0.167,6.295,0.495c7.685,1.161,15.835,5.041,22.948,10.924
					c6.541,5.41,11.351,11.923,12.866,17.42c1.191,4.322,1.458,6.833,0.816,7.675C123.013,48.662,122.774,48.782,122.495,48.782z
					 M64.18,17.863l57.174,29.634l0.034,0.036c0.248,0.259,0.769,0.671,1.107,0.671l0,0c0.098,0,0.168-0.037,0.231-0.119
					c0.291-0.382,0.56-1.822-0.915-7.171c-3.003-10.897-19.096-25.468-35.342-27.924c-2.143-0.325-4.232-0.488-6.208-0.488
					C70.202,12.501,65.295,16.747,64.18,17.863z"/>
			</g>
			<path style="fill:#FFD833;" d="M75.567,18.22c0,0,18.853-7.723,38.009,12.136c0,0-6.994-11.86-24.63-16.55
				c0,0-16.727-2.356-19.919,3.925L75.567,18.22z"/>
			<path style="fill:#FFD833;" d="M74.655,19.323c0,0,6.384-9.929,29.798,2.758c0,0-17.94-14.619-31.624-4.413L74.655,19.323z"/>
			<g>
				<path style="fill:#FFD833;" d="M32.995,51.319c0,0-5.777,7.999-17.028,6.068c-11.252-1.932-5.474,15.721,9.123,12.964
					c14.594-2.759,9.121-16.55,9.121-16.55L32.995,51.319z"/>
				<path style="fill:#232426;" d="M22.049,70.933C22.049,70.933,22.049,70.933,22.049,70.933c-7.613,0-12.286-5.733-12.286-9.843
					c0-2.555,1.757-4.14,4.583-4.14c0.52,0,1.082,0.051,1.67,0.152c1.147,0.196,2.289,0.296,3.395,0.296
					c8.735,0,13.304-6.186,13.349-6.248l0.283-0.391l1.427,2.915c0.11,0.276,2.459,6.329-0.273,11.295
					c-1.612,2.929-4.658,4.837-9.055,5.668C24.097,70.834,23.056,70.933,22.049,70.933z M14.346,57.529
					c-2.544,0-4.003,1.298-4.003,3.561c0,3.868,4.453,9.264,11.706,9.265c0,0,0,0,0.001,0c0.969,0,1.974-0.097,2.987-0.288
					c4.217-0.798,7.128-2.605,8.653-5.375c2.602-4.724,0.277-10.724,0.253-10.784l-1.007-2.054
					c-1.164,1.372-5.76,6.123-13.523,6.123c-1.139,0-2.314-0.102-3.493-0.304C15.362,57.577,14.833,57.529,14.346,57.529z"/>
			</g>
			<g>
				<path style="fill:#FFD833;" d="M126.901,54.821c5.99-5.891,14.797-9.228,24.544-10.059c5.722-0.487,12.159-0.048,17.778,1.041
					c27.063,5.241,12.771,4.412,1.825,12.688c-10.946,8.274-23.414,14.893-28.281,13.239c0,0,4.866,5.241,3.955,15.447
					c-0.913,10.204,2.432,20.686-4.562,17.101c-12.861-6.594-25.372-21.276-22.761-35.276
					C120.469,63.256,123.126,58.533,126.901,54.821z"/>
				<path style="fill:#232426;" d="M144.49,105.285c-0.672,0-1.477-0.245-2.461-0.749c-13.076-6.705-25.55-21.456-22.916-35.589
					c1.043-5.588,3.595-10.41,7.586-14.334c5.769-5.674,14.549-9.275,24.722-10.14c1.548-0.131,3.185-0.198,4.865-0.198
					c4.303,0,8.796,0.43,12.992,1.243c12.056,2.336,15.591,3.397,15.756,4.738c0.127,1.019-1.589,1.822-4.433,3.151
					c-2.602,1.219-6.167,2.886-9.378,5.315c-10.891,8.232-21.369,13.552-26.694,13.553c-0.357,0-0.695-0.024-1.009-0.071
					c1.264,1.724,4.23,6.729,3.491,14.997c-0.273,3.062-0.161,6.154-0.063,8.882c0.147,4.089,0.264,7.319-0.978,8.605
					C145.588,105.085,145.09,105.285,144.49,105.285z M156.285,44.855c-1.663,0-3.283,0.066-4.817,0.196
					c-10.038,0.854-18.691,4.397-24.365,9.976c-3.904,3.84-6.401,8.56-7.421,14.029c-1.928,10.341,5.341,26.111,22.609,34.964
					c1.58,0.809,2.638,0.913,3.261,0.268c1.07-1.112,0.952-4.39,0.815-8.184c-0.1-2.745-0.212-5.857,0.065-8.952
					c0.89-9.963-3.831-15.174-3.878-15.225l0.305-0.471c0.468,0.16,1.03,0.241,1.668,0.241c5.126,0,15.714-5.4,26.345-13.438
					c3.261-2.465,6.857-4.147,9.483-5.376c2.148-1.004,4.177-1.954,4.103-2.554c-0.149-1.211-7.636-2.76-15.292-4.241
					C165.007,45.28,160.552,44.855,156.285,44.855z"/>
			</g>
			<path style="fill:#FFD833;" d="M145.796,104.451c1.893-2.077,0.252-9.751,0.925-17.274c0.911-10.206-3.955-15.447-3.955-15.447
				c4.866,1.654,17.334-4.966,28.281-13.239c2.736-2.071,5.682-3.569,8.139-4.738c0,0,7.064-2.71-3.882-2.986
				c-10.946-0.276-16.725-5.791-43.484,7.447l-3.04,6.068c0,0-11.555,20.411,15.813,39.72L145.796,104.451z"/>
			<g>
				<path style="fill:#F173AC;" d="M47.896,65.8c0,0,18.396,13.515,53.213,1.517c0,0,17.94-6.896,27.671-3.035
					c9.731,3.861,6.386-3.999-1.217-14.343c-7.601-10.343-25.847-39.258-73.689-33.191L46.07,37.39L47.896,65.8z"/>
				<path style="fill:#232426;" d="M73.716,72.573c-0.002,0-0.004,0-0.005,0c-16.888-0.002-25.897-6.473-25.986-6.539l-0.108-0.081
					l-1.839-28.608l7.888-20.862l0.173-0.022c4.345-0.553,8.612-0.831,12.682-0.831c36.618,0,52.484,21.971,60.109,32.528
					c0.415,0.575,0.804,1.113,1.167,1.608c5.704,7.762,8.072,12.733,7.037,14.778c-0.684,1.353-2.722,1.37-6.16,0.005
					c-1.93-0.766-4.347-1.154-7.184-1.154c-9.267,0-20.168,4.147-20.276,4.188C91.611,70.897,82.362,72.573,73.716,72.573z
					 M48.176,65.644c1.063,0.722,9.845,6.349,25.535,6.35c0.001,0,0.003,0,0.003,0c8.585,0,17.768-1.665,27.301-4.95
					c0.1-0.04,11.099-4.224,20.474-4.224c2.911,0,5.399,0.4,7.398,1.194c3.037,1.206,4.906,1.305,5.43,0.27
					c0.902-1.782-1.58-6.814-6.987-14.174c-0.366-0.495-0.755-1.035-1.171-1.611c-7.568-10.481-23.317-32.288-59.639-32.288
					c-3.993,0-8.176,0.27-12.437,0.804l-7.721,20.419L48.176,65.644z"/>
			</g>
			<path style="fill:#F173AC;" d="M68.674,25.207c0,0,4.056,5.516,3.649,9.748c-0.405,4.228,1.622,8.64,7.297,7.905
				c5.678-0.734,16.421,0.369,8.515,5.335c-7.906,4.964-15.407-1.473-15.407-1.473s-0.405,15.816-8.919,19.677
				c-8.514,3.861,33.449,1.103,37.706-3.127c0,0-24.935,15.445-50.073,3.861l16.891-41.223L68.674,25.207z"/>
			<g>
				<path style="fill:#FFD833;" d="M71.298,30.986c0.584,4.656-0.035,9.254-0.622,14.051C69.959,50.9,67.89,58.04,63.561,62.624
					c-2.109,2.235-5.707,3.942-8.976,4.187c-18.548,1.378-30.559-18.344-31.016-26.756c0,0-8.666-1.518-4.409-4.275
					c4.257-2.759,8.97-2.483,10.49-9.379c1.522-6.895,12.164-10.342,23.718-9.516c7.087,0.508,14.234,1.881,16.675,8.771
					C70.68,27.45,71.076,29.223,71.298,30.986z"/>
				<path style="fill:#232426;" d="M52.737,67.156c0.002,0,0.002,0,0.002,0c0.62,0,1.249-0.024,1.87-0.069
					c3.304-0.246,6.995-1.966,9.183-4.281c5.201-5.508,6.757-14.24,7.187-17.738l0.08-0.662c0.567-4.618,1.103-8.978,0.54-13.45
					c-0.237-1.892-0.652-3.652-1.268-5.383c-2.477-6.987-9.605-8.436-16.94-8.961c-1.127-0.081-2.265-0.123-3.376-0.123
					c-11.232,0-19.344,3.87-20.663,9.858c-1.076,4.874-3.728,6.04-6.802,7.392c-1.17,0.515-2.383,1.047-3.569,1.818
					c-1.003,0.649-1.431,1.315-1.272,1.976c0.396,1.649,4.452,2.535,5.568,2.751C23.57,44.08,26.24,50.74,31.521,56.69
					C37.511,63.439,45.047,67.156,52.737,67.156L52.737,67.156z M50.015,17.042c1.097,0,2.216,0.042,3.328,0.119
					c7.125,0.512,14.043,1.903,16.411,8.581c0.602,1.696,1.007,3.422,1.242,5.278c0.555,4.408,0.023,8.739-0.54,13.325l-0.08,0.662
					c-0.422,3.448-1.953,12.049-7.046,17.44c-2.09,2.212-5.613,3.855-8.769,4.09c-0.605,0.044-1.219,0.067-1.82,0.067
					c-17.065,0.003-28.429-18.447-28.869-26.56l-0.011-0.216l-0.235-0.042c-1.379-0.241-5.025-1.14-5.32-2.37
					c-0.104-0.427,0.243-0.901,1.03-1.41c1.145-0.743,2.333-1.265,3.482-1.769c3.083-1.356,5.996-2.639,7.13-7.78
					C31.19,20.824,39.254,17.042,50.015,17.042L50.015,17.042z"/>
			</g>
			<path style="fill:#FFD833;" d="M23.568,39.46c0,0,20.222,2.895,29.8,1.515c0,0-2.888-2.344-0.456-3.449
				c2.432-1.102,3.649,4.553,6.842,4.414c3.192-0.137,3.04,3.172,0.76,3.172c-2.281,0-3.649-1.655-3.344,0.551
				c0.303,2.208-0.912,15.447-7.602,17.102C42.877,64.421,28.738,62.077,23.568,39.46z"/>
			<g>
				<path style="fill:#F15B48;" d="M24.938,40.424c0,0,18.548,4.552,31.321,1.379c0,0-0.762,18.618-10.036,19.307
					C36.948,61.8,27.066,52.973,24.938,40.424z"/>
				<path style="fill:#231F20;" d="M45.2,61.425L45.2,61.425c0.351,0,0.701-0.015,1.047-0.04
					c9.435-0.701,10.282-18.803,10.314-19.571l0.014-0.376l-0.4,0.099c-2.975,0.739-6.528,1.113-10.556,1.113c0,0-0.001,0-0.002,0
					c-10.318,0-20.501-2.469-20.601-2.494l-0.451-0.11l0.071,0.418C26.631,52.218,35.663,61.425,45.2,61.425L45.2,61.425z
					 M55.932,42.167c-0.174,2.619-1.548,18.061-9.734,18.671c-0.33,0.023-0.665,0.036-0.998,0.036
					c-9.134,0-17.803-8.785-19.89-20.076c2.099,0.476,11.149,2.406,20.308,2.406h0.002C49.523,43.203,52.988,42.854,55.932,42.167
					L55.932,42.167z"/>
			</g>
			<path style="fill:#A13D34;" d="M34.211,53.801c0,0,7.907,9.378,15.204,4.138c7.299-5.24,9.427-17.929,3.649-13.239
				c-5.778,4.688-10.746-0.552-10.746-0.552s-1.722-3.585-2.635,0.828c-0.911,4.412-7.297,0.827-7.297,0.827
				S29.346,47.457,34.211,53.801z"/>
			<g>
				<path style="fill:#C2EFDA;" d="M33.024,55.848c3.873,3.615,8.609,5.604,13.198,5.262c9.274-0.689,10.036-19.307,10.036-19.307
					c-12.772,3.173-31.321-1.379-31.321-1.379c0.372,2.196,0.981,4.28,1.785,6.215c0,0,8.097,4.127,14.788,3.024l-0.457-5.516
					l4.409,5.103c0,0,5.473,0.138,9.579-5.931c0,0,1.52-2.757,0.303,0.552c-1.216,3.311-3.345,15.998-12.163,14.62
					C34.364,57.112,33.024,55.848,33.024,55.848z"/>
				<path style="fill:#231F20;" d="M45.2,61.425c0.349,0,0.701-0.015,1.047-0.04c9.435-0.701,10.282-18.803,10.314-19.571
					l0.014-0.376l-0.4,0.099c-2.975,0.739-6.528,1.113-10.558,1.113c-10.318,0-20.501-2.469-20.601-2.494l-0.451-0.11l0.071,0.418
					c0.366,2.161,0.97,4.272,1.802,6.273l0.038,0.094l0.097,0.05c0.064,0.033,6.44,3.245,12.526,3.245h0.002
					c0.861,0,1.689-0.064,2.462-0.192l0.268-0.044l-0.402-4.859l3.879,4.49l0.144,0.004c0.61,0.007,5.631-0.164,9.58-5.68
					c-0.172,0.478-0.362,1.135-0.58,1.89c-1.274,4.397-3.642,12.583-9.969,12.583h-0.002c-0.403,0-0.825-0.034-1.25-0.099
					c-8.479-1.327-9.982-2.555-9.995-2.566l-0.433,0.387h0.001l0,0l0,0C36.526,59.512,40.927,61.425,45.2,61.425L45.2,61.425z
					 M55.828,43.417c-0.444,4.509-2.322,16.874-9.63,17.42c-3.85,0.286-7.913-1.116-11.475-3.911
					c1.473,0.496,4.028,1.151,8.406,1.835c0.46,0.073,0.916,0.108,1.355,0.108h0.002c6.796,0,9.241-8.453,10.556-12.994
					c0.227-0.779,0.42-1.451,0.591-1.918C55.708,43.756,55.773,43.577,55.828,43.417L55.828,43.417z M41.185,49.434
					c-0.658,0.096-1.358,0.142-2.083,0.142H39.1c-5.523,0-11.319-2.731-12.132-3.128c-0.741-1.809-1.299-3.708-1.658-5.652
					c2.1,0.476,11.15,2.406,20.308,2.406c3.635,0,6.889-0.302,9.699-0.898c-0.136,0.182-0.31,0.461-0.548,0.893
					c-3.608,5.332-8.232,5.748-9.16,5.776l-4.935-5.709L41.185,49.434L41.185,49.434z"/>
			</g>
			<path style="fill:#232426;" d="M59.278,43.49c0.169,0,0.343-0.012,0.52-0.035l-0.087-0.545c-2.584,0.338-4.222-2.431-5.311-4.265
				L53.86,38.9C54.898,40.645,56.586,43.49,59.278,43.49L59.278,43.49z"/>
			<path style="fill:#FFD833;" d="M19.179,37.178c0.086-1.406,5.424-2.277,11.922-1.944c6.497,0.331,11.694,1.742,11.606,3.15
				c-0.089,1.406-5.426,2.277-11.924,1.944C24.288,39.996,19.091,38.586,19.179,37.178z"/>
			<path style="fill:#FFD833;" d="M54.078,30.541c0,0,3.04-1.288,7.297-4.232c4.258-2.941,6.082,4.598-2.431,7.724
				c-8.516,3.127-14.8,2.024-16.625-2.943c-1.824-4.963-1.216-12.687,0-9.193C43.536,25.391,54.078,30.541,54.078,30.541z"/>
			<g>
				<path style="fill:#FFFFFF;" d="M41.915,23.737c0-4.57,4.084-8.275,9.122-8.275c5.038,0,9.123,3.705,9.123,8.275
					c0,4.57-4.085,8.274-9.123,8.274C45.999,32.01,41.915,28.306,41.915,23.737z"/>
				<path style="fill:#231F20;" d="M51.036,32.288c5.198,0,9.426-3.836,9.426-8.551c0-4.715-4.228-8.55-9.426-8.55
					c-5.198,0-9.427,3.834-9.427,8.55C41.609,28.452,45.839,32.288,51.036,32.288L51.036,32.288z M51.036,15.738
					c4.862,0,8.819,3.588,8.819,7.999c0,4.411-3.957,7.998-8.819,7.998c-4.862,0-8.818-3.588-8.818-7.998
					C42.219,19.326,46.174,15.738,51.036,15.738L51.036,15.738z"/>
			</g>
			<g>
				<path style="fill:#6D2C0B;" d="M48.704,23.598c0-2.895,2.588-5.241,5.778-5.241c3.192,0,5.778,2.346,5.778,5.241
					c0,2.893-2.586,5.241-5.778,5.241C51.292,28.839,48.704,26.492,48.704,23.598z"/>
				<path style="fill:#331406;" d="M51.949,23.966c0-1.574,1.406-2.849,3.142-2.849c1.736,0,3.142,1.275,3.142,2.849
					c0,1.574-1.406,2.851-3.142,2.851C53.355,26.816,51.949,25.54,51.949,23.966z"/>
				<path style="fill:#F2CCB2;" d="M55.496,21.482c0-0.964,0.863-1.745,1.926-1.745c1.065,0,1.925,0.781,1.925,1.745
					c0,0.966-0.86,1.747-1.925,1.747C56.359,23.23,55.496,22.448,55.496,21.482z"/>
				<path style="fill:#B17133;" d="M54.134,28.572c1.258-0.11,0.05-0.575-0.413-0.756c-0.609-0.236-1.221-0.486-1.731-0.881
					c-0.572-0.441-1.029-1.046-1.248-1.7c-0.207-0.611-0.323-1.455-0.17-2.084c0.127-0.517,0.641-1.251-0.071-1.608
					c-0.811-0.404-0.974,0.476-1.167,0.958c-0.702,1.762,0.556,4.064,2.098,5.145c0.648,0.456,1.633,0.909,2.464,0.932
					C53.976,28.58,54.056,28.577,54.134,28.572z"/>
			</g>
			<path style="fill:#E19F00;" d="M50.023,22.77c0,0,0.153,3.724,2.434,4.69C52.457,27.46,47.896,26.771,50.023,22.77z"/>
			<path style="fill:#FFD833;" d="M37.252,24.656c0,0,2.23,4.045-9.73,6.803c0,0,1.215-1.472,2.127-5.057
				c0.913-3.585,0.506-0.643,0.506-0.643L37.252,24.656z"/>
			<g>
				<path style="fill:#FFFFFF;" d="M24.43,23.118c0-3.314,2.96-5.998,6.613-5.998c3.65,0,6.612,2.684,6.612,5.998
					c0,3.312-2.962,5.996-6.612,5.996C27.389,29.114,24.43,26.43,24.43,23.118z"/>
				<path style="fill:#231F20;" d="M31.043,29.391c3.814,0,6.917-2.816,6.917-6.274c0-3.46-3.103-6.275-6.917-6.275
					c-3.815,0-6.917,2.816-6.917,6.275C24.126,26.576,27.228,29.391,31.043,29.391L31.043,29.391z M31.043,17.395
					c3.477,0,6.308,2.566,6.308,5.723c0,3.155-2.83,5.722-6.308,5.722c-3.479,0-6.308-2.567-6.308-5.722
					C24.735,19.961,27.564,17.395,31.043,17.395L31.043,17.395z"/>
			</g>
			<g>
				<path style="fill:#6D2C0B;" d="M29.353,23.017c0-2.098,1.875-3.799,4.187-3.799c2.313,0,4.188,1.701,4.188,3.799
					c0,2.098-1.875,3.799-4.188,3.799C31.228,26.815,29.353,25.115,29.353,23.017z"/>
				<path style="fill:#331406;" d="M31.704,23.284c0-1.141,1.02-2.066,2.278-2.066c1.259,0,2.278,0.925,2.278,2.066
					c0,1.14-1.019,2.065-2.278,2.065C32.724,25.349,31.704,24.424,31.704,23.284z"/>
				<path style="fill:#F2CCB2;" d="M34.275,21.483c0-0.699,0.625-1.265,1.396-1.265c0.771,0,1.397,0.566,1.397,1.265
					c0,0.699-0.626,1.267-1.397,1.267C34.9,22.75,34.275,22.182,34.275,21.483z"/>
				<path style="fill:#B17133;" d="M33.288,26.622c0.913-0.081,0.036-0.417-0.3-0.548c-0.442-0.17-0.887-0.351-1.256-0.637
					c-0.414-0.321-0.744-0.76-0.905-1.234c-0.148-0.442-0.234-1.053-0.122-1.512c0.092-0.372,0.465-0.905-0.052-1.164
					c-0.587-0.293-0.706,0.344-0.845,0.695c-0.51,1.278,0.402,2.943,1.52,3.73c0.469,0.329,1.183,0.658,1.785,0.675
					C33.172,26.629,33.231,26.625,33.288,26.622z"/>
			</g>
			<path style="fill:#E19F00;" d="M30.308,22.417c0,0,0.11,2.7,1.764,3.399C32.072,25.816,28.765,25.316,30.308,22.417z"/>
			<path style="fill:#FFFFFF;" d="M42.319,44.148c0,0,3.143,3.77,3.649,3.861c0.507,0.091,4.055,0.091,7.704-4.505
				C53.673,43.504,46.476,45.527,42.319,44.148z"/>
			<path style="fill:#FFFFFF;" d="M39.786,43.687c0,0,0.911,5.334,0,5.334c-0.913,0-9.427-0.827-12.568-2.758l-1.319-4.965
				C25.899,41.298,32.59,43.41,39.786,43.687z"/>
			<path style="fill:#FFFFFF;" d="M51.949,54.812c0,0-2.433,4.506-6.284,4.414c-3.853-0.093-7.097-0.919-5.678,0
				C41.408,60.145,49.414,63.272,51.949,54.812z"/>
			<path style="fill:#231F20;" d="M59.956,15.645c0,0-7.297-8.091-15.001-1.286c0,0-0.608-2.206-1.215-2.575
				c-0.608-0.369,7.297-7.907,17.433,1.287L59.956,15.645z"/>
			<path style="fill:#231F20;" d="M35.002,15.278c0,0,0.64-5.658-3.838-5.658c-4.479,0-3.999,5.512-3.999,5.512l-2.078-0.435
				c0,0,0-7.398,6.236-6.963c0,0,5.118-0.728,5.118,7.398L35.002,15.278z"/>
			<path style="fill:#FFD833;" d="M66.439,24.838c-0.384,1.047-0.147,2.72-0.364,3.782c-0.588,2.89-1.976,6.436-5.712,6.839
				c-6.386,0.69-3.193,4.966,0.912,5.655c4.105,0.69,7.298,5.24,7.754-5.241c0.143-3.281,0.162-6.751-0.696-9.964
				c-0.302-1.121-0.9-2.983-1.783-1.324C66.508,24.663,66.471,24.748,66.439,24.838z"/>
			<path style="fill:#F173AC;" d="M68.563,18.204c0.129-0.192,0.283-0.354,0.464-0.473c3.068-2.008,7.604-0.747,10.816,0.091
				c3.671,0.958,7.382,1.74,10.933,3.046c7.966,2.928,15.095,7.5,21.101,13.05c6.749,6.236,12.123,13.35,16.6,21.077
				c0,0,4.459,6.988-15.407-4.596c-19.867-11.585-35.881-5.516-38.922-20.962c0,0-2.23-4.781-5.473-8.091
				C67.95,20.608,67.971,19.09,68.563,18.204z"/>
			<g>
				<path style="fill:#FFD833;" d="M73.438,39.044c0,0,4.256-0.827,6.841-8.274c2.585-7.448,7.602-9.654,13.836-5.102
					c6.233,4.55,3.496,15.721-2.432,19.168c-5.93,3.449-14.293,1.793-18.396-2.62C69.182,37.803,73.438,39.044,73.438,39.044z"/>
				<path style="fill:#232426;" d="M84.459,46.963C84.459,46.963,84.457,46.963,84.459,46.963c2.702,0,5.257-0.654,7.388-1.894
					c3.373-1.961,5.822-6.348,6.093-10.917c0.223-3.736-1.069-6.826-3.634-8.698c-2.2-1.607-4.301-2.422-6.245-2.422
					c-3.542,0-6.333,2.648-8.071,7.655c-2.312,6.663-6.001,7.919-6.548,8.071c-0.187-0.049-0.635-0.15-1.07-0.15
					c-0.694,0-0.977,0.263-1.091,0.488c-0.314,0.612,0.25,1.659,1.773,3.298C75.675,45.211,80.044,46.963,84.459,46.963
					L84.459,46.963z M88.061,23.583c1.8,0,3.774,0.773,5.863,2.298c2.41,1.761,3.619,4.685,3.409,8.241
					c-0.257,4.331-2.648,8.642-5.813,10.482c-2.033,1.181-4.474,1.806-7.06,1.806c-4.24,0-8.431-1.675-10.942-4.372
					c-1.84-1.977-1.755-2.575-1.685-2.71c0.074-0.146,0.369-0.168,0.538-0.168c0.459,0,0.968,0.145,0.975,0.148l0.077,0.021
					l0.078-0.016c0.181-0.036,4.46-0.948,7.067-8.462C82.219,26.098,84.811,23.583,88.061,23.583L88.061,23.583z"/>
			</g>
			<path style="fill:#FFD833;" d="M74.655,39.596c0,0,4.561-0.965,5.624-5.378c1.064-4.414,4.865-13.653,11.707-7.446
				c6.842,6.205,1.52,12.136,0.608,14.756c0,0,3.954-6.62-0.304-8.689c-4.257-2.068,3.04,1.104-4.562,5.24
				c-7.601,4.138-12.162,3.449-7.297,4.828c4.866,1.38,6.994,1.654,3.953,1.93c-3.041,0.276-7.603-0.689-10.339-4.137
				C74.046,40.699,72.374,39.183,74.655,39.596z"/>
			<path style="fill:#FFD833;" d="M132.733,54.629c0,0,17.941-11.309,42.876-5.793c0,0-27.672-9.653-43.788,4.138
				C131.82,52.973,129.389,53.526,132.733,54.629z"/>
			<path style="fill:#FFD833;" d="M126.043,65.938c0,0-5.169,20.687,8.819,31.995c0,0-18.55-13.791-14.292-30.341
				C120.57,67.592,121.786,63.18,126.043,65.938z"/>
			<path style="fill:#FFD833;" d="M32.691,62.903c0,0-6.08,9.654-15.508,4.688c-9.426-4.964-4.865-9.653-3.344-9.377
				c1.521,0.276,4.561-0.828,9.426,4.136C28.13,67.317,28.738,65.662,32.691,62.903z"/>
			<path style="fill:#FFD833;" d="M123.915,68.144c0,0-1.824,9.93,2.736,20.136C126.651,88.28,117.834,74.489,123.915,68.144z"/>
			<path style="fill:#FFD833;" d="M24.177,67.868c0,0-10.643,0.276-11.859-6.068c-1.216-6.345,3.345-2.206,4.865,0
				C18.704,64.007,19.007,67.041,24.177,67.868z"/>
			<path style="fill:#F173AC;" d="M89.859,49.801c0-1.903,1.769-3.447,3.951-3.447c2.185,0,3.955,1.544,3.955,3.447
				c0,1.906-1.77,3.448-3.955,3.448C91.628,53.249,89.859,51.707,89.859,49.801z"/>
			<path style="fill:#F173AC;" d="M102.629,53.526c0-1.525,1.362-2.758,3.04-2.758c1.68,0,3.041,1.234,3.041,2.758
				c0,1.523-1.362,2.758-3.041,2.758C103.992,56.284,102.629,55.049,102.629,53.526z"/>
			<path style="fill:#F173AC;" d="M113.272,56.974c0-1.144,1.021-2.069,2.281-2.069c1.259,0,2.282,0.925,2.282,2.069
				c0,1.143-1.023,2.068-2.282,2.068C114.293,59.042,113.272,58.117,113.272,56.974z"/>
		</g>
	</g>
</g>
</svg>
